<?xml version="1.0" encoding="UTF-8" standalone="no"?>
<!-- Created with Inkscape (http://www.inkscape.org/) -->

<svg
   width="512"
   height="512"
   viewBox="0 0 512 512"
   version="1.1"
   id="svg5"
   xml:space="preserve"
   inkscape:version="1.2.1 (9c6d41e410, 2022-07-14)"
   sodipodi:docname="logo.svg"
   inkscape:export-filename="../logo.png"
   inkscape:export-xdpi="96"
   inkscape:export-ydpi="96"
   xmlns:inkscape="http://www.inkscape.org/namespaces/inkscape"
   xmlns:sodipodi="http://sodipodi.sourceforge.net/DTD/sodipodi-0.dtd"
   xmlns:xlink="http://www.w3.org/1999/xlink"
   xmlns="http://www.w3.org/2000/svg"
   xmlns:svg="http://www.w3.org/2000/svg"><sodipodi:namedview
     id="namedview7"
     pagecolor="#505050"
     bordercolor="#eeeeee"
     borderopacity="1"
     inkscape:showpageshadow="0"
     inkscape:pageopacity="0"
     inkscape:pagecheckerboard="0"
     inkscape:deskcolor="#505050"
     inkscape:document-units="mm"
     showgrid="false"
     inkscape:zoom="0.34832352"
     inkscape:cx="348.81366"
     inkscape:cy="203.8335"
     inkscape:window-width="2560"
     inkscape:window-height="1011"
     inkscape:window-x="0"
     inkscape:window-y="0"
     inkscape:window-maximized="1"
     inkscape:current-layer="layer1" /><defs
     id="defs2"><linearGradient
       inkscape:collect="always"
       id="linearGradient9250"><stop
         style="stop-color:#5d1bf9;stop-opacity:1;"
         offset="0"
         id="stop9244" /><stop
         style="stop-color:#9f82f9;stop-opacity:1;"
         offset="1"
         id="stop9248" /></linearGradient><inkscape:path-effect
       effect="fillet_chamfer"
       id="path-effect9240"
       is_visible="true"
       lpeversion="1"
       nodesatellites_param="C,0,0,1,0,67.733333,0,11 @ C,0,0,1,0,67.733333,0,11 @ C,0,0,1,0,67.733333,0,11"
       unit="px"
       method="auto"
       mode="F"
       radius="256"
       chamfer_steps="12"
       flexible="false"
       use_knot_distance="true"
       apply_no_radius="true"
       apply_with_radius="true"
       only_selected="false"
       hide_knots="false" /><linearGradient
       inkscape:collect="always"
       id="linearGradient5021"><stop
         style="stop-color:#8955f9;stop-opacity:1;"
         offset="0"
         id="stop5017" /><stop
         style="stop-color:#c7a8fc;stop-opacity:1;"
         offset="0.4583056"
         id="stop9234" /><stop
         style="stop-color:#ac94fa;stop-opacity:1;"
         offset="1"
         id="stop5019" /></linearGradient><inkscape:path-effect
       effect="fillet_chamfer"
       id="path-effect801"
       is_visible="true"
       lpeversion="1"
       nodesatellites_param="C,0,0,1,0,67.733333,0,11 @ C,0,0,1,0,67.733333,0,11 @ C,0,0,1,0,67.733333,0,11"
       unit="px"
       method="auto"
       mode="F"
       radius="256"
       chamfer_steps="12"
       flexible="false"
       use_knot_distance="true"
       apply_no_radius="true"
       apply_with_radius="true"
       only_selected="false"
       hide_knots="false" /><linearGradient
       inkscape:collect="always"
       xlink:href="#linearGradient5021"
       id="linearGradient5023"
       x1="618.19354"
       y1="419.99924"
       x2="1024.9348"
       y2="-45.860649"
       gradientUnits="userSpaceOnUse" /><linearGradient
       inkscape:collect="always"
       xlink:href="#linearGradient9250"
       id="linearGradient9242"
       gradientUnits="userSpaceOnUse"
       x1="618.19354"
       y1="419.99924"
       x2="1024.9348"
       y2="-45.860649" /></defs><g
     inkscape:label="Layer 1"
     inkscape:groupmode="layer"
     id="layer1"><path
       sodipodi:type="star"
       style="fill:url(#linearGradient5023);fill-opacity:1;stroke-width:2.02583;stroke-linecap:round;stroke-linejoin:round;paint-order:stroke fill markers;stop-color:#000000"
       id="path620"
       inkscape:flatsided="true"
       sodipodi:sides="3"
       sodipodi:cx="770.82391"
       sodipodi:cy="182.47002"
       sodipodi:r1="300.07477"
       sodipodi:r2="150.03738"
       sodipodi:arg1="2.0943951"
       sodipodi:arg2="3.1415927"
       inkscape:rounded="0"
       inkscape:randomized="0"
       d="m 620.78653,374.60906 0,-384.2780823 0.70669,-7.4008327 2.09454,-7.133347 3.40669,-6.608043 4.5957,-5.843909 5.61861,-4.86856 6.43847,-3.717248 7.0256,-2.431586 7.35883,-1.058039 7.42607,0.353748 7.22493,1.752749 6.76266,3.088401 332.79458,192.139039 6.056,4.31243 5.1303,5.3806 4.0194,6.25429 2.7632,6.90195 1.4069,7.30015 0,7.43449 -1.4069,7.30015 -2.7632,6.90195 -4.0194,6.25429 -5.1303,5.3806 -6.056,4.31243 -332.79458,192.13904 -6.76266,3.0884 -7.22493,1.75275 -7.42607,0.35375 -7.35883,-1.05804 -7.0256,-2.43158 -6.43847,-3.71725 -5.61861,-4.86856 -4.5957,-5.84391 -3.40669,-6.60804 -2.09454,-7.13335 z"
       inkscape:transform-center-x="-81.637764"
       transform="matrix(1.0882325,0,0,1.0882325,-670.49381,57.872194)"
       inkscape:path-effect="#path-effect801"
       inkscape:transform-center-y="-3.2471563e-06" /><path
       sodipodi:type="star"
       style="fill:url(#linearGradient9242);fill-opacity:1;stroke-width:2.02583;stroke-linecap:round;stroke-linejoin:round;paint-order:stroke fill markers;stop-color:#000000"
       id="path9236"
       inkscape:flatsided="true"
       sodipodi:sides="3"
       sodipodi:cx="770.82391"
       sodipodi:cy="182.47002"
       sodipodi:r1="300.07477"
       sodipodi:r2="150.03738"
       sodipodi:arg1="2.0943951"
       sodipodi:arg2="3.1415927"
       inkscape:rounded="0"
       inkscape:randomized="0"
       d="m 620.78653,374.60906 0,-384.2780823 0.70669,-7.4008327 2.09454,-7.133347 3.40669,-6.608043 4.5957,-5.843909 5.61861,-4.86856 6.43847,-3.717248 7.0256,-2.431586 7.35883,-1.058039 7.42607,0.353748 7.22493,1.752749 6.76266,3.088401 332.79458,192.139039 6.056,4.31243 5.1303,5.3806 4.0194,6.25429 2.7632,6.90195 1.4069,7.30015 0,7.43449 -1.4069,7.30015 -2.7632,6.90195 -4.0194,6.25429 -5.1303,5.3806 -6.056,4.31243 -332.79458,192.13904 -6.76266,3.0884 -7.22493,1.75275 -7.42607,0.35375 -7.35883,-1.05804 -7.0256,-2.43158 -6.43847,-3.71725 -5.61861,-4.86856 -4.5957,-5.84391 -3.40669,-6.60804 -2.09454,-7.13335 z"
       inkscape:transform-center-x="-50.434117"
       transform="matrix(0.67228735,0,0,0.67228735,-358.0431,133.76972)"
       inkscape:path-effect="#path-effect9240"
       inkscape:transform-center-y="7.2655012e-06" /></g></svg>
